<?xml version="1.0" encoding="UTF-8" standalone="no"?>
<!-- Created with Inkscape (http://www.inkscape.org/) -->

<svg
   width="72.041039mm"
   height="44.277283mm"
   viewBox="0 0 72.041038 44.277282"
   version="1.1"
   id="svg995"
   inkscape:version="1.2.2 (1:1.2.2+202212051550+b0a8486541)"
   sodipodi:docname="clojure-fullstack-boilerplate.svg"
   xmlns:inkscape="http://www.inkscape.org/namespaces/inkscape"
   xmlns:sodipodi="http://sodipodi.sourceforge.net/DTD/sodipodi-0.dtd"
   xmlns="http://www.w3.org/2000/svg"
   xmlns:svg="http://www.w3.org/2000/svg">
  <sodipodi:namedview
     id="namedview997"
     pagecolor="#ffffff"
     bordercolor="#666666"
     borderopacity="1.0"
     inkscape:showpageshadow="2"
     inkscape:pageopacity="0.0"
     inkscape:pagecheckerboard="0"
     inkscape:deskcolor="#d1d1d1"
     inkscape:document-units="mm"
     showgrid="false"
     inkscape:zoom="1"
     inkscape:cx="356"
     inkscape:cy="174"
     inkscape:window-width="1920"
     inkscape:window-height="1027"
     inkscape:window-x="0"
     inkscape:window-y="0"
     inkscape:window-maximized="1"
     inkscape:current-layer="layer1" />
  <defs
     id="defs992">
    <rect
       x="-25.962784"
       y="-8.9811497"
       width="173.23894"
       height="104.00504"
       id="rect348" />
  </defs>
  <g
     inkscape:label="Layer 1"
     inkscape:groupmode="layer"
     id="layer1"
     transform="translate(28.270852,-50.7655)">
    <g
       aria-label="Clojure
Full-stack
Boilerplate"
       transform="matrix(0.54309648,0,0,0.54309648,-14.581079,53.959883)"
       id="text346"
       style="font-size:18.6667px;line-height:1.25;font-family:Arial;-inkscape-font-specification:Arial;letter-spacing:0px;word-spacing:0px;white-space:pre;shape-inside:url(#rect348);display:inline;fill:#333333">
      <path
         d="m -19.980213,8.5102295 c 2.800005,0 4.144007,-1.8946701 4.573341,-4.7600086 L -17.926876,3.059553 c -0.233334,1.86667 -0.597335,3.0146721 -2.118671,3.0146721 -1.596002,0 -2.370671,-1.278669 -2.370671,-4.3213411 0,-3.0426722 0.774669,-4.3213412 2.370671,-4.3213412 1.521336,0 1.885337,1.1480021 2.118671,3.01467213 l 2.520004,-0.69066791 c -0.429334,-2.86533852 -1.773336,-4.76000862 -4.573341,-4.76000862 -2.660005,0 -5.226676,1.5866696 -5.226676,6.7573456 0,5.170676 2.566671,6.7573455 5.226676,6.7573455 z"
         style="font-weight:bold;font-family:'Auger Mono TEST';-inkscape-font-specification:'Auger Mono TEST Bold'"
         id="path1256" />
      <path
         d="M -5.0655476,8.2862291 V 6.0648917 h -2.1840039 c -0.8960017,0 -1.1106687,-0.2053337 -1.1106687,-1.148002 V -5.1537952 h -5.6186768 v 2.2306707 h 2.986672 v 7.8400142 c 0,2.3053375 1.1760022,3.3693394 3.7426735,3.3693394 z"
         style="font-weight:bold;font-family:'Auger Mono TEST';-inkscape-font-specification:'Auger Mono TEST Bold'"
         id="path1258" />
      <path
         d="m 2.0371038,8.5102295 c 2.8653385,0 4.9653423,-2.0346703 4.9653423,-5.0213424 0,-2.98667207 -2.1000038,-5.0213424 -4.9653423,-5.0213424 -2.86533846,0 -4.9653423,2.03467033 -4.9653423,5.0213424 0,2.9866721 2.10000384,5.0213424 4.9653423,5.0213424 z m 0,-2.4080044 c -1.42800253,0 -2.2960041,-0.933335 -2.2960041,-2.613338 0,-1.680003 0.86800157,-2.61333806 2.2960041,-2.61333806 1.4280026,0 2.2960042,0.93333506 2.2960042,2.61333806 0,1.680003 -0.8680016,2.613338 -2.2960042,2.613338 z"
         style="font-weight:bold;font-family:'Auger Mono TEST';-inkscape-font-specification:'Auger Mono TEST Bold'"
         id="path1260" />
      <path
         d="m 14.525097,-2.5777905 c 1.008002,0 1.717337,-0.8773349 1.717337,-1.7173365 0,-0.746668 -0.709335,-1.5866695 -1.717337,-1.5866695 -1.017335,0 -1.736003,0.8400015 -1.736003,1.5866695 0,0.8400016 0.718668,1.7173365 1.736003,1.7173365 z m -2.31467,14.4106925 c 2.576004,0 3.73334,-1.054668 3.73334,-3.3786726 V -1.3084549 H 9.5784218 V 0.99688259 H 13.311762 V 8.4542294 c 0,0.9520017 -0.205334,1.1573354 -1.101335,1.1573354 H 9.5784218 v 2.2213372 z"
         style="font-weight:bold;font-family:'Auger Mono TEST';-inkscape-font-specification:'Auger Mono TEST Bold'"
         id="path1262" />
      <path
         d="m 28.814429,-1.3084549 h -2.632004 v 6.3653448 c -0.429334,0.6906679 -1.138669,1.0360019 -1.89467,1.0360019 -1.054669,0 -1.605337,-0.4853342 -1.605337,-1.7826699 v -5.6186768 h -2.632004 v 5.7493437 c 0,2.7533383 1.232002,4.0693407 3.518673,4.0693407 1.129335,0 2.184004,-0.373334 2.893338,-1.4000025 l 0.03733,1.1760021 h 2.333337 z"
         style="font-weight:bold;font-family:'Auger Mono TEST';-inkscape-font-specification:'Auger Mono TEST Bold'"
         id="path1264" />
      <path
         d="M 40.219756,0.99688259 V -1.3924551 H 38.33442 c -1.36267,0 -2.520005,0.45733421 -2.958672,1.52133613 L 35.301081,-1.3084549 H 30.933073 V 0.99688259 H 33.07041 V 6.0648917 h -2.137337 v 2.2213374 h 8.465348 V 6.0648917 H 35.702415 V 2.8168859 c 0,-1.2226689 0.578667,-1.82000331 1.848003,-1.82000331 z"
         style="font-weight:bold;font-family:'Auger Mono TEST';-inkscape-font-specification:'Auger Mono TEST Bold'"
         id="path1266" />
      <path
         d="m 46.967738,-1.5324553 c -2.949339,0 -4.806676,2.10933714 -4.806676,4.9373422 0,2.9773387 1.829337,5.1146759 4.900009,5.1146759 1.95067,0 3.341339,-0.8586682 4.116007,-2.6413381 L 49.011741,5.11289 c -0.438667,0.8866683 -1.148002,1.2693356 -1.95067,1.2693356 -1.204002,0 -2.044004,-0.5973344 -2.258671,-2.1093371 h 6.682679 c 0.289334,-3.1266723 -1.129335,-5.8053438 -4.517341,-5.8053438 z m -0.03733,2.14667054 c 1.138669,0 1.801337,0.60666776 1.92267,1.87600336 h -4.032007 c 0.224,-1.2506689 0.933335,-1.87600336 2.109337,-1.87600336 z"
         style="font-weight:bold;font-family:'Auger Mono TEST';-inkscape-font-specification:'Auger Mono TEST Bold'"
         id="path1268" />
      <path
         d="m -20.997548,32.07219 v -5.273343 h 4.629341 V 24.46551 h -4.629341 v -3.126672 h 5.105342 V 19.0055 h -7.830681 v 13.06669 z"
         style="font-weight:bold;font-family:'Auger Mono TEST';-inkscape-font-specification:'Auger Mono TEST Bold'"
         id="path1270" />
      <path
         d="m -4.7855471,22.477506 h -2.6320048 v 6.365345 c -0.4293341,0.690668 -1.1386687,1.036002 -1.89467,1.036002 -1.0546691,0 -1.6053361,-0.485334 -1.6053361,-1.78267 v -5.618677 h -2.632005 v 5.749344 c 0,2.753338 1.232002,4.069341 3.518673,4.069341 1.1293355,0 2.184004,-0.373334 2.8933387,-1.400003 l 0.037333,1.176002 h 2.3333375 z"
         style="font-weight:bold;font-family:'Auger Mono TEST';-inkscape-font-specification:'Auger Mono TEST Bold'"
         id="path1272" />
      <path
         d="m 6.1344446,32.07219 v -2.221337 h -2.184004 c -0.8960016,0 -1.1106686,-0.205334 -1.1106686,-1.148002 V 18.632166 h -5.6186769 v 2.230671 h 2.98667211 v 7.840014 c 0,2.305337 1.17600209,3.369339 3.74267339,3.369339 z"
         style="font-weight:bold;font-family:'Auger Mono TEST';-inkscape-font-specification:'Auger Mono TEST Bold'"
         id="path1274" />
      <path
         d="m 17.334436,32.07219 v -2.221337 h -2.184004 c -0.896002,0 -1.110669,-0.205334 -1.110669,-1.148002 V 18.632166 H 8.4210864 v 2.230671 h 2.9866716 v 7.840014 c 0,2.305337 1.176003,3.369339 3.742674,3.369339 z"
         style="font-weight:bold;font-family:'Auger Mono TEST';-inkscape-font-specification:'Auger Mono TEST Bold'"
         id="path1276" />
      <path
         d="m 26.901093,28.301517 v -2.576005 h -4.928009 v 2.576005 z"
         style="font-weight:bold;font-family:'Auger Mono TEST';-inkscape-font-specification:'Auger Mono TEST Bold'"
         id="path1278" />
      <path
         d="m 35.693081,32.296191 c 2.389338,0 4.013341,-1.082669 4.013341,-3.126673 0,-1.605336 -0.877335,-2.538671 -3.136006,-2.940005 l -1.120002,-0.196 c -1.008001,-0.177334 -1.306669,-0.401334 -1.306669,-0.877335 0,-0.485334 0.522668,-0.728002 1.325336,-0.728002 1.101335,0 1.95067,0.382668 2.762672,1.297336 l 1.661336,-1.64267 c -1.008002,-1.232002 -2.436004,-1.829336 -4.256008,-1.829336 -2.529338,0 -4.050674,1.306669 -4.050674,3.136006 0,1.745336 1.325336,2.566671 3.28534,2.921338 l 1.166668,0.205334 c 0.858669,0.158667 1.110669,0.438667 1.110669,0.877335 0,0.401334 -0.289334,0.746668 -1.306669,0.746668 -1.148002,0 -2.137337,-0.429334 -3.052005,-1.400003 l -1.577337,1.680003 c 1.194669,1.334669 2.781339,1.876004 4.480008,1.876004 z"
         style="font-weight:bold;font-family:'Auger Mono TEST';-inkscape-font-specification:'Auger Mono TEST Bold'"
         id="path1280" />
      <path
         d="m 50.906411,32.07219 v -2.314671 h -2.930672 c -0.905335,0 -1.110668,-0.214667 -1.110668,-1.054668 v -3.920007 h 4.04134 v -2.305338 h -4.04134 v -2.818672 h -2.632005 v 2.818672 h -2.100004 v 2.305338 h 2.100004 v 3.920007 c 0,2.305337 1.166669,3.369339 3.742673,3.369339 z"
         style="font-weight:bold;font-family:'Auger Mono TEST';-inkscape-font-specification:'Auger Mono TEST Bold'"
         id="path1282" />
      <path
         d="m 62.647743,29.710853 c -0.634668,0 -0.709335,-0.242667 -0.709335,-0.858669 v -6.356011 l -2.333338,-0.01867 -0.0093,0.793335 c -0.578668,-0.690668 -1.353336,-1.017335 -2.333337,-1.017335 -2.454672,0 -4.358675,1.95067 -4.358675,5.021342 0,3.070672 1.904003,5.021343 4.358675,5.021343 1.036001,0 1.86667,-0.354668 2.445337,-1.148002 0.354668,0.746668 1.166669,0.961335 2.436005,0.961335 h 0.765334 V 29.710853 Z M 55.47973,27.274848 c 0,-1.848003 0.961335,-2.650671 2.240004,-2.650671 0.662668,0 1.166668,0.205333 1.577336,0.606668 v 4.088007 c -0.410668,0.410667 -0.914668,0.616001 -1.577336,0.616001 -1.278669,0 -2.240004,-0.812001 -2.240004,-2.660005 z"
         style="font-weight:bold;font-family:'Auger Mono TEST';-inkscape-font-specification:'Auger Mono TEST Bold'"
         id="path1284" />
      <path
         d="m 69.27439,32.296191 c 2.230671,0 4.069341,-1.372003 4.582675,-3.882674 l -2.445337,-0.560001 c -0.270668,1.446669 -1.045336,2.025337 -2.137338,2.025337 -1.400002,0 -2.240004,-1.045335 -2.240004,-2.622671 0,-1.549337 0.858668,-2.613339 2.240004,-2.613339 1.054669,0 1.848004,0.606668 2.118671,1.988004 l 2.464004,-0.513334 c -0.597334,-2.669338 -2.361337,-3.864007 -4.582675,-3.864007 -2.996005,0 -4.909342,2.296004 -4.909342,5.002676 0,2.716004 1.95067,5.040009 4.909342,5.040009 z"
         style="font-weight:bold;font-family:'Auger Mono TEST';-inkscape-font-specification:'Auger Mono TEST Bold'"
         id="path1286" />
      <path
         d="m 85.915723,32.07219 -3.873341,-5.646677 3.686674,-3.948007 h -3.500007 l -2.912005,3.584007 V 18.632166 H 76.675706 V 32.07219 h 2.641338 v -2.725338 l 1.026669,-1.101335 2.482671,3.826673 z"
         style="font-weight:bold;font-family:'Auger Mono TEST';-inkscape-font-specification:'Auger Mono TEST Bold'"
         id="path1288" />
      <path
         d="m -18.150877,48.998139 c 1.213336,-0.429334 1.75467,-1.409336 1.75467,-2.772005 0,-2.837338 -2.17467,-3.434673 -3.76134,-3.434673 h -4.293341 v 13.06669 h 4.741342 c 2.016004,0 3.87334,-1.306669 3.87334,-3.696006 0,-1.708003 -0.765334,-2.772005 -2.314671,-3.164006 z m -2.576004,-4.078674 c 1.241335,0 1.605336,0.373334 1.605336,1.521336 0,1.241336 -0.532001,1.680003 -1.568003,1.680003 h -1.073335 v -3.201339 z m -1.036002,8.820016 v -3.56534 h 1.334669 c 1.325336,0 1.78267,0.364001 1.78267,1.773337 0,1.344002 -0.513334,1.792003 -1.64267,1.792003 z"
         style="font-weight:bold;font-family:'Auger Mono TEST';-inkscape-font-specification:'Auger Mono TEST Bold'"
         id="path1290" />
      <path
         d="m -9.1628883,56.082152 c 2.8653385,0 4.9653423,-2.034671 4.9653423,-5.021343 0,-2.986672 -2.1000038,-5.021342 -4.9653423,-5.021342 -2.8653387,0 -4.9653427,2.03467 -4.9653427,5.021342 0,2.986672 2.100004,5.021343 4.9653427,5.021343 z m 0,-2.408005 c -1.4280027,0 -2.2960037,-0.933335 -2.2960037,-2.613338 0,-1.680003 0.868001,-2.613338 2.2960037,-2.613338 1.4280025,0 2.2960041,0.933335 2.2960041,2.613338 0,1.680003 -0.8680016,2.613338 -2.2960041,2.613338 z"
         style="font-weight:bold;font-family:'Auger Mono TEST';-inkscape-font-specification:'Auger Mono TEST Bold'"
         id="path1292" />
      <path
         d="m 1.9251036,44.994132 c 1.0080019,0 1.7173365,-0.877335 1.7173365,-1.717337 0,-0.746668 -0.7093346,-1.586669 -1.7173365,-1.586669 -1.00800178,0 -1.71733639,0.840001 -1.71733639,1.586669 0,0.840002 0.70933461,1.717337 1.71733639,1.717337 z M 6.3677783,55.858151 V 53.636814 H 3.3624396 v -7.373347 h -5.6560102 v 2.314671 h 3.01467207 v 5.058676 H -2.2935706 v 2.221337 z"
         style="font-weight:bold;font-family:'Auger Mono TEST';-inkscape-font-specification:'Auger Mono TEST Bold'"
         id="path1294" />
      <path
         d="m 17.334436,55.858151 v -2.221337 h -2.184004 c -0.896002,0 -1.110669,-0.205334 -1.110669,-1.148002 V 42.418127 H 8.4210864 v 2.230671 h 2.9866716 v 7.840014 c 0,2.305337 1.176003,3.369339 3.742674,3.369339 z"
         style="font-weight:bold;font-family:'Auger Mono TEST';-inkscape-font-specification:'Auger Mono TEST Bold'"
         id="path1296" />
      <path
         d="m 24.567755,46.039467 c -2.949339,0 -4.806675,2.109337 -4.806675,4.937342 0,2.977339 1.829336,5.114676 4.900009,5.114676 1.95067,0 3.341339,-0.858668 4.116007,-2.641338 l -2.165337,-0.765335 c -0.438668,0.886669 -1.148002,1.269336 -1.95067,1.269336 -1.204003,0 -2.044004,-0.597334 -2.258671,-2.109337 h 6.682679 c 0.289333,-3.126673 -1.129336,-5.805344 -4.517342,-5.805344 z m -0.03733,2.146671 c 1.138668,0 1.801336,0.606667 1.92267,1.876003 h -4.032007 c 0.224,-1.250669 0.933335,-1.876003 2.109337,-1.876003 z"
         style="font-weight:bold;font-family:'Auger Mono TEST';-inkscape-font-specification:'Auger Mono TEST Bold'"
         id="path1298" />
      <path
         d="M 40.219756,48.568805 V 46.179467 H 38.33442 c -1.36267,0 -2.520005,0.457334 -2.958672,1.521336 l -0.07467,-1.437336 H 30.93307 v 2.305338 h 2.137337 v 5.068009 H 30.93307 v 2.221337 h 8.465348 v -2.221337 h -3.696006 v -3.248006 c 0,-1.222669 0.578667,-1.820003 1.848003,-1.820003 z"
         style="font-weight:bold;font-family:'Auger Mono TEST';-inkscape-font-specification:'Auger Mono TEST Bold'"
         id="path1300" />
      <path
         d="m 47.462405,46.0488 c -1.148002,0 -2.00667,0.382668 -2.613338,1.185336 L 44.8304,46.263467 h -2.324004 v 13.141357 h 2.632005 v -4.032007 c 0.569334,0.485334 1.297336,0.709335 2.174671,0.709335 2.473337,0 4.293341,-1.969337 4.293341,-5.012009 0,-3.042672 -1.689337,-5.021343 -4.144008,-5.021343 z m -0.653334,7.662681 c -0.681335,0 -1.222669,-0.205334 -1.67067,-0.644001 v -3.994674 c 0.448001,-0.448001 1.008002,-0.644001 1.689336,-0.644001 1.222669,0 2.193338,0.709334 2.193338,2.641338 0,1.92267 -0.989336,2.641338 -2.212004,2.641338 z"
         style="font-weight:bold;font-family:'Auger Mono TEST';-inkscape-font-specification:'Auger Mono TEST Bold'"
         id="path1302" />
      <path
         d="m 62.134408,55.858151 v -2.221337 h -2.184004 c -0.896001,0 -1.110668,-0.205334 -1.110668,-1.148002 V 42.418127 h -5.618677 v 2.230671 h 2.986672 v 7.840014 c 0,2.305337 1.176002,3.369339 3.742673,3.369339 z"
         style="font-weight:bold;font-family:'Auger Mono TEST';-inkscape-font-specification:'Auger Mono TEST Bold'"
         id="path1304" />
      <path
         d="m 73.847732,53.496814 c -0.634668,0 -0.709335,-0.242667 -0.709335,-0.858668 v -6.356012 l -2.333337,-0.01867 -0.0093,0.793335 c -0.578667,-0.690668 -1.353335,-1.017335 -2.333337,-1.017335 -2.454671,0 -4.358675,1.95067 -4.358675,5.021342 0,3.070673 1.904004,5.021343 4.358675,5.021343 1.036002,0 1.86667,-0.354668 2.445338,-1.148002 0.354667,0.746668 1.166668,0.961335 2.436004,0.961335 H 74.1091 v -2.398671 z m -7.168013,-2.436005 c 0,-1.848003 0.961335,-2.650671 2.240004,-2.650671 0.662668,0 1.166669,0.205334 1.577336,0.606668 v 4.088007 c -0.410667,0.410667 -0.914668,0.616001 -1.577336,0.616001 -1.278669,0 -2.240004,-0.812001 -2.240004,-2.660005 z"
         style="font-weight:bold;font-family:'Auger Mono TEST';-inkscape-font-specification:'Auger Mono TEST Bold'"
         id="path1306" />
      <path
         d="m 84.506387,55.858151 v -2.31467 h -2.930672 c -0.905335,0 -1.110669,-0.214668 -1.110669,-1.054669 v -3.920007 h 4.041341 v -2.305338 h -4.041341 v -2.818671 h -2.632004 v 2.818671 h -2.100004 v 2.305338 h 2.100004 v 3.920007 c 0,2.305337 1.166668,3.369339 3.742673,3.369339 z"
         style="font-weight:bold;font-family:'Auger Mono TEST';-inkscape-font-specification:'Auger Mono TEST Bold'"
         id="path1308" />
      <path
         d="m 91.76771,46.039467 c -2.949339,0 -4.806675,2.109337 -4.806675,4.937342 0,2.977339 1.829336,5.114676 4.900009,5.114676 1.95067,0 3.341339,-0.858668 4.116007,-2.641338 l -2.165337,-0.765335 c -0.438668,0.886669 -1.148002,1.269336 -1.95067,1.269336 -1.204003,0 -2.044004,-0.597334 -2.258671,-2.109337 h 6.682679 c 0.289333,-3.126673 -1.129336,-5.805344 -4.517342,-5.805344 z m -0.03733,2.146671 c 1.138668,0 1.801336,0.606667 1.92267,1.876003 h -4.03201 c 0.224,-1.250669 0.933335,-1.876003 2.109337,-1.876003 z"
         style="font-weight:bold;font-family:'Auger Mono TEST';-inkscape-font-specification:'Auger Mono TEST Bold'"
         id="path1310" />
    </g>
    <rect
       style="fill:#333333;stroke-width:0;stroke-linecap:round;stroke-linejoin:round"
       id="rect773"
       width="72.041039"
       height="1.2259958"
       x="-28.270851"
       y="93.816788"
       rx="0"
       ry="0" />
  </g>
</svg>
